<?xml version="1.0" encoding="iso-8859-1"?>
<!-- Generator: Adobe Illustrator 19.0.0, SVG Export Plug-In . SVG Version: 6.00 Build 0)  -->
<svg version="1.1" id="Capa_1" xmlns="http://www.w3.org/2000/svg" xmlns:xlink="http://www.w3.org/1999/xlink" x="0px" y="0px"
	 viewBox="0 0 512 512" style="enable-background:new 0 0 512 512;" xml:space="preserve">
<path style="fill:#CCC3BB;" d="M481.208,380.812c-27.722-27.735-72.672-27.735-100.394,0c-5.869,5.869-10.495,12.507-13.879,19.583
	l-75.486-75.487c8.436-31.569,0.26-66.663-24.504-91.427L43.512,10.041C6.691,46.863,6.549,106.462,43.086,143.473
	c0.142,0.154,0.284,0.296,0.426,0.438l204.689,204.681l132.613,132.615c27.722,27.723,72.672,27.723,100.394,0
	C508.93,453.485,508.93,408.535,481.208,380.812z M447.74,447.74c-9.241,9.242-24.224,9.242-33.466,0
	c-9.241-9.242-9.241-24.225,0-33.466c9.241-9.242,24.224-9.242,33.466,0C456.981,423.515,456.981,438.498,447.74,447.74z"/>
<path style="fill:#EFEFEF;" d="M468.53,10L245.055,233.48c-24.764,24.764-32.94,59.859-24.504,91.427l-75.486,75.487
	c-3.384-7.076-8.01-13.714-13.879-19.583c-27.722-27.735-72.672-27.735-100.394,0c-27.722,27.723-27.722,72.673,0,100.396
	s72.672,27.723,100.394,0l132.613-132.615L468.53,143.869c0.142-0.142,0.284-0.284,0.426-0.438
	C505.493,106.42,505.351,46.822,468.53,10z M97.726,447.74c-9.241,9.242-24.224,9.242-33.466,0c-9.241-9.242-9.241-24.225,0-33.466
	c9.241-9.242,24.224-9.242,33.466,0C106.967,423.515,106.967,438.498,97.726,447.74z"/>
<path d="M488.281,373.742c-15.297-15.304-35.636-23.732-57.27-23.732c-21.635,0-41.973,8.428-57.268,23.73
	c-3.258,3.258-6.213,6.756-8.85,10.47l-61.284-61.285l172.02-172.013c0.181-0.182,0.361-0.364,0.542-0.556
	c19.48-19.785,30.163-45.968,30.081-73.741c-0.082-27.834-10.967-54.003-30.651-73.687c-3.905-3.904-10.237-3.904-14.143,0
	L256,208.39L50.583,2.97c-1.875-1.875-4.419-2.929-7.071-2.929c-2.652,0-5.196,1.054-7.071,2.929
	C16.757,22.655,5.872,48.823,5.79,76.657c-0.082,27.775,10.6,53.957,30.083,73.743c0.17,0.181,0.349,0.362,0.569,0.583
	L208.39,322.925l-61.284,61.285c-2.636-3.713-5.591-7.212-8.848-10.468c-15.296-15.304-35.635-23.732-57.27-23.732
	s-41.973,8.428-57.268,23.73C8.424,389.037,0,409.376,0,431.01c0,21.633,8.424,41.972,23.72,57.269
	C39.017,503.576,59.355,512,80.989,512s41.972-8.425,57.268-23.721l79.256-79.257c11.352,6.853,24.572,10.688,38.487,10.688
	c13.914,0,27.135-3.836,38.487-10.687l79.256,79.257c15.296,15.296,35.634,23.72,57.268,23.72c21.633,0,41.972-8.424,57.268-23.721
	C503.576,472.983,512,452.643,512,431.01C512,409.376,503.576,389.037,488.281,373.742z M43.93,24.601l197.928,197.932l-3.874,3.874
	c-5.237,5.237-9.834,10.97-13.778,17.069L30.383,49.65C33.393,40.755,37.895,32.265,43.93,24.601z M207.587,293.838L50.559,136.817
	l-0.116-0.117c-0.079-0.085-0.159-0.169-0.241-0.252C33.106,119.13,25.035,96.162,25.955,73.502l188.669,188.673
	C210.666,272.284,208.285,282.974,207.587,293.838z M124.114,474.136C112.596,485.656,97.28,492,80.989,492
	s-31.607-6.344-43.126-17.864C26.344,462.617,20,447.301,20,431.01c0-16.292,6.344-31.608,17.864-43.129
	c11.519-11.524,26.834-17.87,43.125-17.87s31.605,6.347,43.126,17.872c4.936,4.936,8.949,10.597,11.928,16.826
	c1.4,2.928,4.134,4.994,7.333,5.542c3.197,0.551,6.465-0.491,8.76-2.785l75.486-75.488c2.524-2.524,3.511-6.204,2.59-9.654
	c-7.786-29.135,0.611-60.47,21.915-81.774L468.112,24.56c6.033,7.662,10.535,16.151,13.545,25.044l-193.22,193.233
	c-1.89,1.88-2.93,4.391-2.93,7.061c0,2.68,1.04,5.19,2.93,7.08c1.89,1.88,4.4,2.93,7.07,2.93s5.18-1.05,7.07-2.93l183.51-183.523
	c0.921,22.662-7.15,45.632-24.247,62.951c-0.082,0.083-0.149,0.152-0.228,0.238L256.727,341.521L124.114,474.136z M256,399.709
	c-8.425,0-16.496-1.932-23.737-5.438L256,370.534l23.741,23.741C272.498,397.779,264.425,399.709,256,399.709z M474.137,474.136
	C462.618,485.656,447.302,492,431.011,492c-16.292,0-31.607-6.344-43.126-17.864L270.142,356.391l0.727-0.728l18.598-18.597
	l70.397,70.399c2.295,2.294,5.56,3.337,8.76,2.785c3.199-0.548,5.933-2.614,7.333-5.542c2.979-6.229,6.992-11.89,11.93-16.827
	c11.519-11.524,26.834-17.87,43.125-17.87s31.606,6.347,43.126,17.872C485.656,399.402,492,414.718,492,431.01
	C492,447.301,485.656,462.617,474.137,474.136z"/>
<path d="M431.007,397.342c-8.992,0-17.445,3.501-23.804,9.86s-9.86,14.813-9.86,23.805c0,8.991,3.501,17.446,9.86,23.804
	c6.358,6.359,14.812,9.86,23.804,9.86s17.446-3.501,23.804-9.86c6.359-6.359,9.86-14.813,9.86-23.804
	c0-8.992-3.501-17.447-9.86-23.805C448.453,400.844,439.999,397.342,431.007,397.342z M440.668,440.669
	c-2.581,2.581-6.012,4.002-9.662,4.002c-3.649,0-7.081-1.421-9.662-4.002c-2.581-2.58-4.001-6.012-4.001-9.661
	c0-3.65,1.421-7.082,4.001-9.662c2.581-2.581,6.013-4.002,9.662-4.002c3.65,0,7.081,1.421,9.662,4.002s4.002,6.012,4.002,9.662
	C444.671,434.657,443.249,438.087,440.668,440.669z"/>
<path d="M80.993,397.342c-8.992,0-17.445,3.501-23.804,9.86s-9.86,14.813-9.86,23.805c0,8.991,3.501,17.446,9.86,23.804
	c6.358,6.359,14.812,9.86,23.804,9.86s17.446-3.501,23.804-9.86c6.359-6.359,9.86-14.813,9.86-23.804
	c0-8.992-3.501-17.447-9.86-23.805S89.985,397.342,80.993,397.342z M90.654,440.669c-2.581,2.581-6.012,4.002-9.662,4.002
	c-3.649,0-7.081-1.421-9.662-4.002c-2.581-2.58-4.001-6.012-4.001-9.661c0-3.65,1.421-7.082,4.001-9.662
	c2.581-2.581,6.013-4.002,9.662-4.002c3.65,0,7.081,1.421,9.662,4.002s4.002,6.012,4.002,9.662
	C94.657,434.657,93.235,438.087,90.654,440.669z"/>
<path d="M267.227,288.188c2.67,0,5.18-1.04,7.07-2.931c3.9-3.899,3.9-10.239,0-14.14c-1.89-1.89-4.4-2.93-7.07-2.93
	c-2.67,0-5.19,1.04-7.07,2.93c-3.9,3.9-3.9,10.24,0,14.14C262.037,287.148,264.557,288.188,267.227,288.188z"/>
<g>
</g>
<g>
</g>
<g>
</g>
<g>
</g>
<g>
</g>
<g>
</g>
<g>
</g>
<g>
</g>
<g>
</g>
<g>
</g>
<g>
</g>
<g>
</g>
<g>
</g>
<g>
</g>
<g>
</g>
</svg>
